<svg version="1.1" id="Layer_1" xmlns="http://www.w3.org/2000/svg" xmlns:xlink="http://www.w3.org/1999/xlink" x="0px" y="0px"
	 width="100%" height="100%"  viewBox="160 200 700 600" enable-background="new 0 0 1024 1024" xml:space="preserve">
<path fill="currentColor" opacity="1.000000" stroke="none" 
	d="
M721.999878,681.369934 
	C696.169617,681.371216 670.838623,681.462708 645.509705,681.280212 
	C641.442810,681.250916 639.173828,682.654663 637.206360,686.099609 
	C630.680603,697.525696 623.801514,708.734375 615.553955,719.051758 
	C597.320801,741.860840 574.450745,756.986633 545.472351,762.676331 
	C516.086365,768.445984 487.148285,767.911621 459.341278,756.119690 
	C428.034973,742.843872 410.133240,718.409668 405.998627,684.965698 
	C403.032867,660.976624 407.637604,637.545898 416.935974,615.179138 
	C422.247040,602.403625 428.175690,589.889587 435.178040,577.969299 
	C437.807434,573.493347 437.337067,570.268494 434.793121,566.167053 
	C421.975281,545.501404 409.398102,524.686707 396.704102,503.944092 
	C371.319244,462.464020 345.897308,421.006683 320.525452,379.518677 
	C312.388397,366.212982 304.360687,352.840454 295.891174,338.851349 
	C295.891174,420.136292 295.950256,500.717072 295.833099,581.297607 
	C295.813507,594.771973 295.666229,608.197510 298.299133,621.497986 
	C302.881409,644.645874 319.624786,660.907471 342.952728,664.728333 
	C350.665283,665.991577 353.761475,670.928650 351.854492,678.725586 
	C351.429016,680.465271 350.570312,681.333679 348.799530,681.329895 
	C347.799927,681.327820 346.800293,681.368958 345.800659,681.368896 
	C302.639191,681.368347 259.477722,681.381653 216.316330,681.323669 
	C213.588272,681.319946 210.082092,682.550293 209.676270,677.634399 
	C209.119003,670.884216 210.732986,666.161926 214.827866,665.398438 
	C225.437683,663.420227 235.278702,659.957642 244.016098,653.290100 
	C255.746933,644.338379 261.946838,632.383606 263.585907,618.113281 
	C266.881042,589.424927 265.494141,560.585571 265.570465,531.806519 
	C265.737061,468.981262 265.694641,406.155182 265.569916,343.329742 
	C265.550812,333.704590 265.669464,323.890625 263.932983,314.495087 
	C259.806274,292.166992 245.093124,279.741638 223.512299,274.785767 
	C220.757874,274.153198 218.614807,273.810547 218.570389,270.026276 
	C218.475693,261.957642 218.524307,261.676483 226.740555,261.676819 
	C259.736572,261.678192 292.733856,261.825623 325.727539,261.547272 
	C331.885803,261.495331 335.278900,263.671906 338.410614,268.874298 
	C383.940460,344.506866 429.678619,420.014008 475.373962,495.546906 
	C478.605835,500.889069 480.201569,500.760681 483.869049,494.671753 
	C502.002472,464.565674 520.067505,434.418396 538.212402,404.319244 
	C565.986145,358.247528 593.834717,312.220947 621.543579,266.110291 
	C623.513916,262.831451 625.791870,261.605042 629.580750,261.618103 
	C663.576233,261.735107 697.572449,261.645844 731.567993,261.750336 
	C734.153870,261.758270 738.046082,260.123169 738.492004,265.038666 
	C739.088562,271.612854 737.337769,274.391541 731.916687,275.277710 
	C721.069275,277.050934 712.592041,283.080231 705.005493,290.496002 
	C697.856140,297.484467 695.319214,306.522125 694.336426,316.197357 
	C693.713806,322.326447 693.244751,328.441010 693.248108,334.608215 
	C693.302368,433.096130 693.329224,531.584045 693.317261,630.071960 
	C693.316711,634.271545 693.993042,638.365173 694.902161,642.390625 
	C697.236328,652.725769 703.826172,658.860535 714.301208,659.522278 
	C732.968262,660.701660 751.542419,659.303650 769.725525,654.860718 
	C794.855408,648.720337 811.346741,631.427917 824.766541,610.630432 
	C828.907593,604.212891 832.412964,597.347778 834.749390,590.004150 
	C835.537170,587.528015 836.945190,586.392761 839.529541,586.795654 
	C840.681763,586.975281 841.833923,587.156250 842.987915,587.324402 
	C851.869080,588.619080 851.955627,588.636169 850.101868,597.517029 
	C844.603149,623.859192 838.465393,650.048767 831.682190,676.095276 
	C830.526428,680.533203 828.588867,681.451660 824.481506,681.436035 
	C790.488098,681.306580 756.493896,681.366516 721.999878,681.369934 
M485.057220,559.468445 
	C481.440643,565.843079 477.885925,572.253723 474.196167,578.585754 
	C462.001831,599.512756 451.162567,621.042358 445.772369,644.853088 
	C441.413177,664.109314 441.617310,683.176697 450.082275,701.461609 
	C465.619537,735.023193 505.166992,748.333618 539.078857,736.732605 
	C565.159424,727.810730 581.117126,708.422546 592.800964,684.646240 
	C593.229370,683.774414 593.652405,682.786438 592.292236,681.335449 
	C590.659973,681.335449 588.525146,681.334351 586.390381,681.335571 
	C562.061035,681.349976 537.731567,681.321716 513.402649,681.429871 
	C510.108276,681.444580 508.037415,680.622742 506.185425,677.541870 
	C493.489807,656.422119 480.615845,635.407715 467.573334,614.500244 
	C465.448486,611.094116 465.154785,608.546692 467.203400,604.997375 
	C478.108948,586.102478 488.737152,567.047729 499.558472,548.103821 
	C500.742188,546.031616 501.458435,543.470032 503.912872,542.226929 
	C506.108154,543.296570 506.880066,545.440796 507.971008,547.220459 
	C518.590454,564.544250 529.117554,581.924561 539.706421,599.267151 
	C550.468811,616.894043 561.243469,634.513428 572.074707,652.097961 
	C574.853271,656.609070 578.568237,660.075867 583.839783,661.598328 
	C598.696777,665.889404 613.005493,658.062805 617.363525,642.886841 
	C620.086731,633.403748 620.549988,623.513245 620.567200,613.751038 
	C620.724121,524.765930 620.664124,435.780426 620.667542,346.795013 
	C620.667725,342.556519 620.667664,338.318024 620.667664,333.232513 
	C619.152832,335.588928 618.043457,337.209564 617.038940,338.892731 
	C598.690002,369.638855 580.395081,400.417297 562.004395,431.138367 
	C536.511475,473.723389 510.948517,516.266479 485.057220,559.468445 
z"/>
</svg>